<svg class="rich-terminal" viewBox="0 0 1336 782.0" xmlns="http://www.w3.org/2000/svg">
    <!-- Generated with Rich https://www.textualize.io -->
    <style>

    

    .terminal-2666404841-matrix {
        font-family: Fira Code, monospace;
        font-size: 20px;
        line-height: 24.4px;
        font-variant-east-asian: full-width;
    }

    .terminal-2666404841-title {
        font-size: 18px;
        font-weight: bold;
        font-family: arial;
    }

    .terminal-2666404841-r1 { fill: #c5c8c6 }
.terminal-2666404841-r2 { fill: #888888 }
.terminal-2666404841-r3 { fill: #2a2a2a }
.terminal-2666404841-r4 { fill: #141414 }
.terminal-2666404841-r5 { fill: #555555 }
.terminal-2666404841-r6 { fill: #cccccc }
.terminal-2666404841-r7 { fill: #6699cc }
.terminal-2666404841-r8 { fill: #dddddd }
.terminal-2666404841-r9 { fill: #121212 }
    </style>

    <defs>
    <clipPath id="terminal-2666404841-clip-terminal">
      <rect x="0" y="0" width="1316.6" height="731.0" />
    </clipPath>
    <clipPath id="terminal-2666404841-line-0">
    <rect x="0" y="1.5" width="1317.6" height="24.65"/>
            </clipPath>
<clipPath id="terminal-2666404841-line-1">
    <rect x="0" y="25.9" width="1317.6" height="24.65"/>
            </clipPath>
<clipPath id="terminal-2666404841-line-2">
    <rect x="0" y="50.3" width="1317.6" height="24.65"/>
            </clipPath>
<clipPath id="terminal-2666404841-line-3">
    <rect x="0" y="74.7" width="1317.6" height="24.65"/>
            </clipPath>
<clipPath id="terminal-2666404841-line-4">
    <rect x="0" y="99.1" width="1317.6" height="24.65"/>
            </clipPath>
<clipPath id="terminal-2666404841-line-5">
    <rect x="0" y="123.5" width="1317.6" height="24.65"/>
            </clipPath>
<clipPath id="terminal-2666404841-line-6">
    <rect x="0" y="147.9" width="1317.6" height="24.65"/>
            </clipPath>
<clipPath id="terminal-2666404841-line-7">
    <rect x="0" y="172.3" width="1317.6" height="24.65"/>
            </clipPath>
<clipPath id="terminal-2666404841-line-8">
    <rect x="0" y="196.7" width="1317.6" height="24.65"/>
            </clipPath>
<clipPath id="terminal-2666404841-line-9">
    <rect x="0" y="221.1" width="1317.6" height="24.65"/>
            </clipPath>
<clipPath id="terminal-2666404841-line-10">
    <rect x="0" y="245.5" width="1317.6" height="24.65"/>
            </clipPath>
<clipPath id="terminal-2666404841-line-11">
    <rect x="0" y="269.9" width="1317.6" height="24.65"/>
            </clipPath>
<clipPath id="terminal-2666404841-line-12">
    <rect x="0" y="294.3" width="1317.6" height="24.65"/>
            </clipPath>
<clipPath id="terminal-2666404841-line-13">
    <rect x="0" y="318.7" width="1317.6" height="24.65"/>
            </clipPath>
<clipPath id="terminal-2666404841-line-14">
    <rect x="0" y="343.1" width="1317.6" height="24.65"/>
            </clipPath>
<clipPath id="terminal-2666404841-line-15">
    <rect x="0" y="367.5" width="1317.6" height="24.65"/>
            </clipPath>
<clipPath id="terminal-2666404841-line-16">
    <rect x="0" y="391.9" width="1317.6" height="24.65"/>
            </clipPath>
<clipPath id="terminal-2666404841-line-17">
    <rect x="0" y="416.3" width="1317.6" height="24.65"/>
            </clipPath>
<clipPath id="terminal-2666404841-line-18">
    <rect x="0" y="440.7" width="1317.6" height="24.65"/>
            </clipPath>
<clipPath id="terminal-2666404841-line-19">
    <rect x="0" y="465.1" width="1317.6" height="24.65"/>
            </clipPath>
<clipPath id="terminal-2666404841-line-20">
    <rect x="0" y="489.5" width="1317.6" height="24.65"/>
            </clipPath>
<clipPath id="terminal-2666404841-line-21">
    <rect x="0" y="513.9" width="1317.6" height="24.65"/>
            </clipPath>
<clipPath id="terminal-2666404841-line-22">
    <rect x="0" y="538.3" width="1317.6" height="24.65"/>
            </clipPath>
<clipPath id="terminal-2666404841-line-23">
    <rect x="0" y="562.7" width="1317.6" height="24.65"/>
            </clipPath>
<clipPath id="terminal-2666404841-line-24">
    <rect x="0" y="587.1" width="1317.6" height="24.65"/>
            </clipPath>
<clipPath id="terminal-2666404841-line-25">
    <rect x="0" y="611.5" width="1317.6" height="24.65"/>
            </clipPath>
<clipPath id="terminal-2666404841-line-26">
    <rect x="0" y="635.9" width="1317.6" height="24.65"/>
            </clipPath>
<clipPath id="terminal-2666404841-line-27">
    <rect x="0" y="660.3" width="1317.6" height="24.65"/>
            </clipPath>
<clipPath id="terminal-2666404841-line-28">
    <rect x="0" y="684.7" width="1317.6" height="24.65"/>
            </clipPath>
    </defs>

    <rect fill="#292929" stroke="rgba(255,255,255,0.35)" stroke-width="1" x="1" y="1" width="1334" height="780" rx="8"/><text class="terminal-2666404841-title" fill="#c5c8c6" text-anchor="middle" x="667" y="27">Scribe</text>
            <g transform="translate(26,22)">
            <circle cx="0" cy="0" r="7" fill="#ff5f57"/>
            <circle cx="22" cy="0" r="7" fill="#febc2e"/>
            <circle cx="44" cy="0" r="7" fill="#28c840"/>
            </g>
        
    <g transform="translate(9, 41)" clip-path="url(#terminal-2666404841-clip-terminal)">
    <rect fill="#111111" x="0" y="1.5" width="24.4" height="24.65" shape-rendering="crispEdges"/><rect fill="#111111" x="24.4" y="1.5" width="927.2" height="24.65" shape-rendering="crispEdges"/><rect fill="#111111" x="951.6" y="1.5" width="341.6" height="24.65" shape-rendering="crispEdges"/><rect fill="#111111" x="1293.2" y="1.5" width="24.4" height="24.65" shape-rendering="crispEdges"/><rect fill="#141414" x="0" y="25.9" width="231.8" height="24.65" shape-rendering="crispEdges"/><rect fill="#141414" x="231.8" y="25.9" width="12.2" height="24.65" shape-rendering="crispEdges"/><rect fill="#1a1a1a" x="244" y="25.9" width="1073.6" height="24.65" shape-rendering="crispEdges"/><rect fill="#141414" x="0" y="50.3" width="12.2" height="24.65" shape-rendering="crispEdges"/><rect fill="#141414" x="12.2" y="50.3" width="219.6" height="24.65" shape-rendering="crispEdges"/><rect fill="#141414" x="231.8" y="50.3" width="12.2" height="24.65" shape-rendering="crispEdges"/><rect fill="#1a1a1a" x="244" y="50.3" width="1073.6" height="24.65" shape-rendering="crispEdges"/><rect fill="#141414" x="0" y="74.7" width="12.2" height="24.65" shape-rendering="crispEdges"/><rect fill="#141414" x="12.2" y="74.7" width="12.2" height="24.65" shape-rendering="crispEdges"/><rect fill="#141414" x="24.4" y="74.7" width="134.2" height="24.65" shape-rendering="crispEdges"/><rect fill="#141414" x="158.6" y="74.7" width="61" height="24.65" shape-rendering="crispEdges"/><rect fill="#141414" x="219.6" y="74.7" width="12.2" height="24.65" shape-rendering="crispEdges"/><rect fill="#141414" x="231.8" y="74.7" width="12.2" height="24.65" shape-rendering="crispEdges"/><rect fill="#1a1a1a" x="244" y="74.7" width="48.8" height="24.65" shape-rendering="crispEdges"/><rect fill="#1a1a1a" x="292.8" y="74.7" width="390.4" height="24.65" shape-rendering="crispEdges"/><rect fill="#1a1a1a" x="683.2" y="74.7" width="585.6" height="24.65" shape-rendering="crispEdges"/><rect fill="#1a1a1a" x="1268.8" y="74.7" width="48.8" height="24.65" shape-rendering="crispEdges"/><rect fill="#141414" x="0" y="99.1" width="12.2" height="24.65" shape-rendering="crispEdges"/><rect fill="#141414" x="12.2" y="99.1" width="12.2" height="24.65" shape-rendering="crispEdges"/><rect fill="#141414" x="24.4" y="99.1" width="97.6" height="24.65" shape-rendering="crispEdges"/><rect fill="#141414" x="122" y="99.1" width="97.6" height="24.65" shape-rendering="crispEdges"/><rect fill="#141414" x="219.6" y="99.1" width="12.2" height="24.65" shape-rendering="crispEdges"/><rect fill="#141414" x="231.8" y="99.1" width="12.2" height="24.65" shape-rendering="crispEdges"/><rect fill="#1a1a1a" x="244" y="99.1" width="48.8" height="24.65" shape-rendering="crispEdges"/><rect fill="#1a1a1a" x="292.8" y="99.1" width="378.2" height="24.65" shape-rendering="crispEdges"/><rect fill="#1a1a1a" x="671" y="99.1" width="597.8" height="24.65" shape-rendering="crispEdges"/><rect fill="#1a1a1a" x="1268.8" y="99.1" width="48.8" height="24.65" shape-rendering="crispEdges"/><rect fill="#141414" x="0" y="123.5" width="12.2" height="24.65" shape-rendering="crispEdges"/><rect fill="#141414" x="12.2" y="123.5" width="219.6" height="24.65" shape-rendering="crispEdges"/><rect fill="#141414" x="231.8" y="123.5" width="12.2" height="24.65" shape-rendering="crispEdges"/><rect fill="#1a1a1a" x="244" y="123.5" width="48.8" height="24.65" shape-rendering="crispEdges"/><rect fill="#1a1a1a" x="292.8" y="123.5" width="158.6" height="24.65" shape-rendering="crispEdges"/><rect fill="#1a1a1a" x="451.4" y="123.5" width="817.4" height="24.65" shape-rendering="crispEdges"/><rect fill="#1a1a1a" x="1268.8" y="123.5" width="48.8" height="24.65" shape-rendering="crispEdges"/><rect fill="#141414" x="0" y="147.9" width="231.8" height="24.65" shape-rendering="crispEdges"/><rect fill="#141414" x="231.8" y="147.9" width="12.2" height="24.65" shape-rendering="crispEdges"/><rect fill="#1a1a1a" x="244" y="147.9" width="48.8" height="24.65" shape-rendering="crispEdges"/><rect fill="#1a1a1a" x="292.8" y="147.9" width="305" height="24.65" shape-rendering="crispEdges"/><rect fill="#1a1a1a" x="597.8" y="147.9" width="671" height="24.65" shape-rendering="crispEdges"/><rect fill="#1a1a1a" x="1268.8" y="147.9" width="48.8" height="24.65" shape-rendering="crispEdges"/><rect fill="#141414" x="0" y="172.3" width="12.2" height="24.65" shape-rendering="crispEdges"/><rect fill="#141414" x="12.2" y="172.3" width="219.6" height="24.65" shape-rendering="crispEdges"/><rect fill="#141414" x="231.8" y="172.3" width="12.2" height="24.65" shape-rendering="crispEdges"/><rect fill="#1a1a1a" x="244" y="172.3" width="48.8" height="24.65" shape-rendering="crispEdges"/><rect fill="#1a1a1a" x="292.8" y="172.3" width="12.2" height="24.65" shape-rendering="crispEdges"/><rect fill="#1a1a1a" x="305" y="172.3" width="963.8" height="24.65" shape-rendering="crispEdges"/><rect fill="#1a1a1a" x="1268.8" y="172.3" width="48.8" height="24.65" shape-rendering="crispEdges"/><rect fill="#141414" x="0" y="196.7" width="12.2" height="24.65" shape-rendering="crispEdges"/><rect fill="#141414" x="12.2" y="196.7" width="12.2" height="24.65" shape-rendering="crispEdges"/><rect fill="#141414" x="24.4" y="196.7" width="183" height="24.65" shape-rendering="crispEdges"/><rect fill="#141414" x="207.4" y="196.7" width="12.2" height="24.65" shape-rendering="crispEdges"/><rect fill="#141414" x="219.6" y="196.7" width="12.2" height="24.65" shape-rendering="crispEdges"/><rect fill="#141414" x="231.8" y="196.7" width="12.2" height="24.65" shape-rendering="crispEdges"/><rect fill="#1a1a1a" x="244" y="196.7" width="48.8" height="24.65" shape-rendering="crispEdges"/><rect fill="#1a1a1a" x="292.8" y="196.7" width="134.2" height="24.65" shape-rendering="crispEdges"/><rect fill="#1a1a1a" x="427" y="196.7" width="841.8" height="24.65" shape-rendering="crispEdges"/><rect fill="#1a1a1a" x="1268.8" y="196.7" width="48.8" height="24.65" shape-rendering="crispEdges"/><rect fill="#141414" x="0" y="221.1" width="12.2" height="24.65" shape-rendering="crispEdges"/><rect fill="#141414" x="12.2" y="221.1" width="12.2" height="24.65" shape-rendering="crispEdges"/><rect fill="#141414" x="24.4" y="221.1" width="97.6" height="24.65" shape-rendering="crispEdges"/><rect fill="#141414" x="122" y="221.1" width="97.6" height="24.65" shape-rendering="crispEdges"/><rect fill="#141414" x="219.6" y="221.1" width="12.2" height="24.65" shape-rendering="crispEdges"/><rect fill="#141414" x="231.8" y="221.1" width="12.2" height="24.65" shape-rendering="crispEdges"/><rect fill="#1a1a1a" x="244" y="221.1" width="48.8" height="24.65" shape-rendering="crispEdges"/><rect fill="#1a1a1a" x="292.8" y="221.1" width="366" height="24.65" shape-rendering="crispEdges"/><rect fill="#1a1a1a" x="658.8" y="221.1" width="610" height="24.65" shape-rendering="crispEdges"/><rect fill="#1a1a1a" x="1268.8" y="221.1" width="48.8" height="24.65" shape-rendering="crispEdges"/><rect fill="#141414" x="0" y="245.5" width="12.2" height="24.65" shape-rendering="crispEdges"/><rect fill="#141414" x="12.2" y="245.5" width="219.6" height="24.65" shape-rendering="crispEdges"/><rect fill="#141414" x="231.8" y="245.5" width="12.2" height="24.65" shape-rendering="crispEdges"/><rect fill="#1a1a1a" x="244" y="245.5" width="48.8" height="24.65" shape-rendering="crispEdges"/><rect fill="#1a1a1a" x="292.8" y="245.5" width="195.2" height="24.65" shape-rendering="crispEdges"/><rect fill="#1a1a1a" x="488" y="245.5" width="780.8" height="24.65" shape-rendering="crispEdges"/><rect fill="#1a1a1a" x="1268.8" y="245.5" width="48.8" height="24.65" shape-rendering="crispEdges"/><rect fill="#141414" x="0" y="269.9" width="231.8" height="24.65" shape-rendering="crispEdges"/><rect fill="#141414" x="231.8" y="269.9" width="12.2" height="24.65" shape-rendering="crispEdges"/><rect fill="#1a1a1a" x="244" y="269.9" width="48.8" height="24.65" shape-rendering="crispEdges"/><rect fill="#1a1a1a" x="292.8" y="269.9" width="280.6" height="24.65" shape-rendering="crispEdges"/><rect fill="#1a1a1a" x="573.4" y="269.9" width="695.4" height="24.65" shape-rendering="crispEdges"/><rect fill="#1a1a1a" x="1268.8" y="269.9" width="48.8" height="24.65" shape-rendering="crispEdges"/><rect fill="#1e1e1e" x="0" y="294.3" width="12.2" height="24.65" shape-rendering="crispEdges"/><rect fill="#1e1e1e" x="12.2" y="294.3" width="219.6" height="24.65" shape-rendering="crispEdges"/><rect fill="#141414" x="231.8" y="294.3" width="12.2" height="24.65" shape-rendering="crispEdges"/><rect fill="#1a1a1a" x="244" y="294.3" width="48.8" height="24.65" shape-rendering="crispEdges"/><rect fill="#1a1a1a" x="292.8" y="294.3" width="12.2" height="24.65" shape-rendering="crispEdges"/><rect fill="#1a1a1a" x="305" y="294.3" width="963.8" height="24.65" shape-rendering="crispEdges"/><rect fill="#1a1a1a" x="1268.8" y="294.3" width="48.8" height="24.65" shape-rendering="crispEdges"/><rect fill="#1e1e1e" x="0" y="318.7" width="12.2" height="24.65" shape-rendering="crispEdges"/><rect fill="#1e1e1e" x="12.2" y="318.7" width="12.2" height="24.65" shape-rendering="crispEdges"/><rect fill="#1e1e1e" x="24.4" y="318.7" width="158.6" height="24.65" shape-rendering="crispEdges"/><rect fill="#1e1e1e" x="183" y="318.7" width="36.6" height="24.65" shape-rendering="crispEdges"/><rect fill="#1e1e1e" x="219.6" y="318.7" width="12.2" height="24.65" shape-rendering="crispEdges"/><rect fill="#141414" x="231.8" y="318.7" width="12.2" height="24.65" shape-rendering="crispEdges"/><rect fill="#1a1a1a" x="244" y="318.7" width="48.8" height="24.65" shape-rendering="crispEdges"/><rect fill="#1a1a1a" x="292.8" y="318.7" width="134.2" height="24.65" shape-rendering="crispEdges"/><rect fill="#1a1a1a" x="427" y="318.7" width="841.8" height="24.65" shape-rendering="crispEdges"/><rect fill="#1a1a1a" x="1268.8" y="318.7" width="48.8" height="24.65" shape-rendering="crispEdges"/><rect fill="#1e1e1e" x="0" y="343.1" width="12.2" height="24.65" shape-rendering="crispEdges"/><rect fill="#1e1e1e" x="12.2" y="343.1" width="12.2" height="24.65" shape-rendering="crispEdges"/><rect fill="#1e1e1e" x="24.4" y="343.1" width="97.6" height="24.65" shape-rendering="crispEdges"/><rect fill="#1e1e1e" x="122" y="343.1" width="97.6" height="24.65" shape-rendering="crispEdges"/><rect fill="#1e1e1e" x="219.6" y="343.1" width="12.2" height="24.65" shape-rendering="crispEdges"/><rect fill="#141414" x="231.8" y="343.1" width="12.2" height="24.65" shape-rendering="crispEdges"/><rect fill="#1a1a1a" x="244" y="343.1" width="48.8" height="24.65" shape-rendering="crispEdges"/><rect fill="#1a1a1a" x="292.8" y="343.1" width="256.2" height="24.65" shape-rendering="crispEdges"/><rect fill="#1a1a1a" x="549" y="343.1" width="719.8" height="24.65" shape-rendering="crispEdges"/><rect fill="#1a1a1a" x="1268.8" y="343.1" width="48.8" height="24.65" shape-rendering="crispEdges"/><rect fill="#1e1e1e" x="0" y="367.5" width="12.2" height="24.65" shape-rendering="crispEdges"/><rect fill="#1e1e1e" x="12.2" y="367.5" width="219.6" height="24.65" shape-rendering="crispEdges"/><rect fill="#141414" x="231.8" y="367.5" width="12.2" height="24.65" shape-rendering="crispEdges"/><rect fill="#1a1a1a" x="244" y="367.5" width="48.8" height="24.65" shape-rendering="crispEdges"/><rect fill="#1a1a1a" x="292.8" y="367.5" width="305" height="24.65" shape-rendering="crispEdges"/><rect fill="#1a1a1a" x="597.8" y="367.5" width="671" height="24.65" shape-rendering="crispEdges"/><rect fill="#1a1a1a" x="1268.8" y="367.5" width="48.8" height="24.65" shape-rendering="crispEdges"/><rect fill="#141414" x="0" y="391.9" width="231.8" height="24.65" shape-rendering="crispEdges"/><rect fill="#141414" x="231.8" y="391.9" width="12.2" height="24.65" shape-rendering="crispEdges"/><rect fill="#1a1a1a" x="244" y="391.9" width="48.8" height="24.65" shape-rendering="crispEdges"/><rect fill="#1a1a1a" x="292.8" y="391.9" width="366" height="24.65" shape-rendering="crispEdges"/><rect fill="#1a1a1a" x="658.8" y="391.9" width="610" height="24.65" shape-rendering="crispEdges"/><rect fill="#1a1a1a" x="1268.8" y="391.9" width="48.8" height="24.65" shape-rendering="crispEdges"/><rect fill="#141414" x="0" y="416.3" width="231.8" height="24.65" shape-rendering="crispEdges"/><rect fill="#141414" x="231.8" y="416.3" width="12.2" height="24.65" shape-rendering="crispEdges"/><rect fill="#1a1a1a" x="244" y="416.3" width="48.8" height="24.65" shape-rendering="crispEdges"/><rect fill="#1a1a1a" x="292.8" y="416.3" width="12.2" height="24.65" shape-rendering="crispEdges"/><rect fill="#1a1a1a" x="305" y="416.3" width="963.8" height="24.65" shape-rendering="crispEdges"/><rect fill="#1a1a1a" x="1268.8" y="416.3" width="48.8" height="24.65" shape-rendering="crispEdges"/><rect fill="#141414" x="0" y="440.7" width="231.8" height="24.65" shape-rendering="crispEdges"/><rect fill="#141414" x="231.8" y="440.7" width="12.2" height="24.65" shape-rendering="crispEdges"/><rect fill="#1a1a1a" x="244" y="440.7" width="48.8" height="24.65" shape-rendering="crispEdges"/><rect fill="#1a1a1a" x="292.8" y="440.7" width="85.4" height="24.65" shape-rendering="crispEdges"/><rect fill="#1a1a1a" x="378.2" y="440.7" width="890.6" height="24.65" shape-rendering="crispEdges"/><rect fill="#1a1a1a" x="1268.8" y="440.7" width="48.8" height="24.65" shape-rendering="crispEdges"/><rect fill="#141414" x="0" y="465.1" width="231.8" height="24.65" shape-rendering="crispEdges"/><rect fill="#141414" x="231.8" y="465.1" width="12.2" height="24.65" shape-rendering="crispEdges"/><rect fill="#1a1a1a" x="244" y="465.1" width="48.8" height="24.65" shape-rendering="crispEdges"/><rect fill="#1a1a1a" x="292.8" y="465.1" width="597.8" height="24.65" shape-rendering="crispEdges"/><rect fill="#1a1a1a" x="890.6" y="465.1" width="378.2" height="24.65" shape-rendering="crispEdges"/><rect fill="#1a1a1a" x="1268.8" y="465.1" width="48.8" height="24.65" shape-rendering="crispEdges"/><rect fill="#141414" x="0" y="489.5" width="231.8" height="24.65" shape-rendering="crispEdges"/><rect fill="#141414" x="231.8" y="489.5" width="12.2" height="24.65" shape-rendering="crispEdges"/><rect fill="#1a1a1a" x="244" y="489.5" width="48.8" height="24.65" shape-rendering="crispEdges"/><rect fill="#6699cc" x="292.8" y="489.5" width="12.2" height="24.65" shape-rendering="crispEdges"/><rect fill="#222222" x="305" y="489.5" width="963.8" height="24.65" shape-rendering="crispEdges"/><rect fill="#1a1a1a" x="1268.8" y="489.5" width="48.8" height="24.65" shape-rendering="crispEdges"/><rect fill="#141414" x="0" y="513.9" width="231.8" height="24.65" shape-rendering="crispEdges"/><rect fill="#141414" x="231.8" y="513.9" width="12.2" height="24.65" shape-rendering="crispEdges"/><rect fill="#1a1a1a" x="244" y="513.9" width="48.8" height="24.65" shape-rendering="crispEdges"/><rect fill="#1a1a1a" x="292.8" y="513.9" width="976" height="24.65" shape-rendering="crispEdges"/><rect fill="#1a1a1a" x="1268.8" y="513.9" width="48.8" height="24.65" shape-rendering="crispEdges"/><rect fill="#141414" x="0" y="538.3" width="231.8" height="24.65" shape-rendering="crispEdges"/><rect fill="#141414" x="231.8" y="538.3" width="12.2" height="24.65" shape-rendering="crispEdges"/><rect fill="#1a1a1a" x="244" y="538.3" width="48.8" height="24.65" shape-rendering="crispEdges"/><rect fill="#1a1a1a" x="292.8" y="538.3" width="976" height="24.65" shape-rendering="crispEdges"/><rect fill="#1a1a1a" x="1268.8" y="538.3" width="48.8" height="24.65" shape-rendering="crispEdges"/><rect fill="#141414" x="0" y="562.7" width="231.8" height="24.65" shape-rendering="crispEdges"/><rect fill="#141414" x="231.8" y="562.7" width="12.2" height="24.65" shape-rendering="crispEdges"/><rect fill="#1a1a1a" x="244" y="562.7" width="48.8" height="24.65" shape-rendering="crispEdges"/><rect fill="#1a1a1a" x="292.8" y="562.7" width="976" height="24.65" shape-rendering="crispEdges"/><rect fill="#1a1a1a" x="1268.8" y="562.7" width="48.8" height="24.65" shape-rendering="crispEdges"/><rect fill="#141414" x="0" y="587.1" width="231.8" height="24.65" shape-rendering="crispEdges"/><rect fill="#141414" x="231.8" y="587.1" width="12.2" height="24.65" shape-rendering="crispEdges"/><rect fill="#1a1a1a" x="244" y="587.1" width="48.8" height="24.65" shape-rendering="crispEdges"/><rect fill="#1a1a1a" x="292.8" y="587.1" width="976" height="24.65" shape-rendering="crispEdges"/><rect fill="#1a1a1a" x="1268.8" y="587.1" width="48.8" height="24.65" shape-rendering="crispEdges"/><rect fill="#141414" x="0" y="611.5" width="231.8" height="24.65" shape-rendering="crispEdges"/><rect fill="#141414" x="231.8" y="611.5" width="12.2" height="24.65" shape-rendering="crispEdges"/><rect fill="#1a1a1a" x="244" y="611.5" width="48.8" height="24.65" shape-rendering="crispEdges"/><rect fill="#1a1a1a" x="292.8" y="611.5" width="976" height="24.65" shape-rendering="crispEdges"/><rect fill="#1a1a1a" x="1268.8" y="611.5" width="48.8" height="24.65" shape-rendering="crispEdges"/><rect fill="#141414" x="0" y="635.9" width="231.8" height="24.65" shape-rendering="crispEdges"/><rect fill="#141414" x="231.8" y="635.9" width="12.2" height="24.65" shape-rendering="crispEdges"/><rect fill="#1a1a1a" x="244" y="635.9" width="48.8" height="24.65" shape-rendering="crispEdges"/><rect fill="#1a1a1a" x="292.8" y="635.9" width="976" height="24.65" shape-rendering="crispEdges"/><rect fill="#1a1a1a" x="1268.8" y="635.9" width="48.8" height="24.65" shape-rendering="crispEdges"/><rect fill="#141414" x="0" y="660.3" width="231.8" height="24.65" shape-rendering="crispEdges"/><rect fill="#141414" x="231.8" y="660.3" width="12.2" height="24.65" shape-rendering="crispEdges"/><rect fill="#1a1a1a" x="244" y="660.3" width="1073.6" height="24.65" shape-rendering="crispEdges"/><rect fill="#141414" x="0" y="684.7" width="231.8" height="24.65" shape-rendering="crispEdges"/><rect fill="#141414" x="231.8" y="684.7" width="12.2" height="24.65" shape-rendering="crispEdges"/><rect fill="#1a1a1a" x="244" y="684.7" width="1073.6" height="24.65" shape-rendering="crispEdges"/><rect fill="#111111" x="0" y="709.1" width="24.4" height="24.65" shape-rendering="crispEdges"/><rect fill="#111111" x="24.4" y="709.1" width="1220" height="24.65" shape-rendering="crispEdges"/><rect fill="#111111" x="1244.4" y="709.1" width="48.8" height="24.65" shape-rendering="crispEdges"/><rect fill="#111111" x="1293.2" y="709.1" width="24.4" height="24.65" shape-rendering="crispEdges"/>
    <g class="terminal-2666404841-matrix">
    <text class="terminal-2666404841-r2" x="24.4" y="20" textLength="927.2" clip-path="url(#terminal-2666404841-line-0)">✎&#160;SURVIVAL&#160;MODE&#160;&#160;&#160;&#160;Sep&#160;12,&#160;2026&#160;&#160;21:58&#160;&#160;&#160;&#160;Focused&#160;&#160;&#160;&#160;Wi-Fi:&#160;Off&#160;&#160;&#160;&#160;Batt:&#160;87%</text><text class="terminal-2666404841-r1" x="1317.6" y="20" textLength="12.2" clip-path="url(#terminal-2666404841-line-0)">
</text><text class="terminal-2666404841-r3" x="231.8" y="44.4" textLength="12.2" clip-path="url(#terminal-2666404841-line-1)">│</text><text class="terminal-2666404841-r1" x="1317.6" y="44.4" textLength="12.2" clip-path="url(#terminal-2666404841-line-1)">
</text><text class="terminal-2666404841-r4" x="0" y="68.8" textLength="12.2" clip-path="url(#terminal-2666404841-line-2)">│</text><text class="terminal-2666404841-r3" x="231.8" y="68.8" textLength="12.2" clip-path="url(#terminal-2666404841-line-2)">│</text><text class="terminal-2666404841-r1" x="1317.6" y="68.8" textLength="12.2" clip-path="url(#terminal-2666404841-line-2)">
</text><text class="terminal-2666404841-r4" x="0" y="93.2" textLength="12.2" clip-path="url(#terminal-2666404841-line-3)">│</text><text class="terminal-2666404841-r5" x="24.4" y="93.2" textLength="134.2" clip-path="url(#terminal-2666404841-line-3)">&#160;✎&#160;&#160;Writing</text><text class="terminal-2666404841-r3" x="231.8" y="93.2" textLength="12.2" clip-path="url(#terminal-2666404841-line-3)">│</text><text class="terminal-2666404841-r6" x="292.8" y="93.2" textLength="390.4" clip-path="url(#terminal-2666404841-line-3)">SURVIVAL&#160;LOG&#160;—&#160;2026-09-12&#160;09:20&#160;</text><text class="terminal-2666404841-r1" x="1317.6" y="93.2" textLength="12.2" clip-path="url(#terminal-2666404841-line-3)">
</text><text class="terminal-2666404841-r4" x="0" y="117.6" textLength="12.2" clip-path="url(#terminal-2666404841-line-4)">│</text><text class="terminal-2666404841-r5" x="24.4" y="117.6" textLength="97.6" clip-path="url(#terminal-2666404841-line-4)">&#160;&#160;&#160;&#160;Mode</text><text class="terminal-2666404841-r3" x="231.8" y="117.6" textLength="12.2" clip-path="url(#terminal-2666404841-line-4)">│</text><text class="terminal-2666404841-r6" x="292.8" y="117.6" textLength="378.2" clip-path="url(#terminal-2666404841-line-4)">──────────────────────────────&#160;</text><text class="terminal-2666404841-r1" x="1317.6" y="117.6" textLength="12.2" clip-path="url(#terminal-2666404841-line-4)">
</text><text class="terminal-2666404841-r4" x="0" y="142" textLength="12.2" clip-path="url(#terminal-2666404841-line-5)">│</text><text class="terminal-2666404841-r3" x="231.8" y="142" textLength="12.2" clip-path="url(#terminal-2666404841-line-5)">│</text><text class="terminal-2666404841-r6" x="292.8" y="142" textLength="158.6" clip-path="url(#terminal-2666404841-line-5)">Battery:&#160;87%&#160;</text><text class="terminal-2666404841-r1" x="1317.6" y="142" textLength="12.2" clip-path="url(#terminal-2666404841-line-5)">
</text><text class="terminal-2666404841-r3" x="231.8" y="166.4" textLength="12.2" clip-path="url(#terminal-2666404841-line-6)">│</text><text class="terminal-2666404841-r6" x="292.8" y="166.4" textLength="305" clip-path="url(#terminal-2666404841-line-6)">Temp:&#160;&#160;&#160;&#160;52.5°F&#160;/&#160;11.4°C&#160;</text><text class="terminal-2666404841-r1" x="1317.6" y="166.4" textLength="12.2" clip-path="url(#terminal-2666404841-line-6)">
</text><text class="terminal-2666404841-r4" x="0" y="190.8" textLength="12.2" clip-path="url(#terminal-2666404841-line-7)">│</text><text class="terminal-2666404841-r3" x="231.8" y="190.8" textLength="12.2" clip-path="url(#terminal-2666404841-line-7)">│</text><text class="terminal-2666404841-r1" x="1317.6" y="190.8" textLength="12.2" clip-path="url(#terminal-2666404841-line-7)">
</text><text class="terminal-2666404841-r4" x="0" y="215.2" textLength="12.2" clip-path="url(#terminal-2666404841-line-8)">│</text><text class="terminal-2666404841-r5" x="24.4" y="215.2" textLength="183" clip-path="url(#terminal-2666404841-line-8)">&#160;◎&#160;&#160;Observation</text><text class="terminal-2666404841-r3" x="231.8" y="215.2" textLength="12.2" clip-path="url(#terminal-2666404841-line-8)">│</text><text class="terminal-2666404841-r6" x="292.8" y="215.2" textLength="134.2" clip-path="url(#terminal-2666404841-line-8)">Resources:&#160;</text><text class="terminal-2666404841-r1" x="1317.6" y="215.2" textLength="12.2" clip-path="url(#terminal-2666404841-line-8)">
</text><text class="terminal-2666404841-r4" x="0" y="239.6" textLength="12.2" clip-path="url(#terminal-2666404841-line-9)">│</text><text class="terminal-2666404841-r5" x="24.4" y="239.6" textLength="97.6" clip-path="url(#terminal-2666404841-line-9)">&#160;&#160;&#160;&#160;Mode</text><text class="terminal-2666404841-r3" x="231.8" y="239.6" textLength="12.2" clip-path="url(#terminal-2666404841-line-9)">│</text><text class="terminal-2666404841-r6" x="292.8" y="239.6" textLength="366" clip-path="url(#terminal-2666404841-line-9)">&#160;&#160;Water:&#160;2.5L&#160;+&#160;stream&#160;200m&#160;N&#160;</text><text class="terminal-2666404841-r1" x="1317.6" y="239.6" textLength="12.2" clip-path="url(#terminal-2666404841-line-9)">
</text><text class="terminal-2666404841-r4" x="0" y="264" textLength="12.2" clip-path="url(#terminal-2666404841-line-10)">│</text><text class="terminal-2666404841-r3" x="231.8" y="264" textLength="12.2" clip-path="url(#terminal-2666404841-line-10)">│</text><text class="terminal-2666404841-r6" x="292.8" y="264" textLength="195.2" clip-path="url(#terminal-2666404841-line-10)">&#160;&#160;Food:&#160;&#160;3&#160;days&#160;</text><text class="terminal-2666404841-r1" x="1317.6" y="264" textLength="12.2" clip-path="url(#terminal-2666404841-line-10)">
</text><text class="terminal-2666404841-r3" x="231.8" y="288.4" textLength="12.2" clip-path="url(#terminal-2666404841-line-11)">│</text><text class="terminal-2666404841-r6" x="292.8" y="288.4" textLength="280.6" clip-path="url(#terminal-2666404841-line-11)">&#160;&#160;Fuel:&#160;&#160;half&#160;canister&#160;</text><text class="terminal-2666404841-r1" x="1317.6" y="288.4" textLength="12.2" clip-path="url(#terminal-2666404841-line-11)">
</text><text class="terminal-2666404841-r7" x="0" y="312.8" textLength="12.2" clip-path="url(#terminal-2666404841-line-12)">│</text><text class="terminal-2666404841-r3" x="231.8" y="312.8" textLength="12.2" clip-path="url(#terminal-2666404841-line-12)">│</text><text class="terminal-2666404841-r1" x="1317.6" y="312.8" textLength="12.2" clip-path="url(#terminal-2666404841-line-12)">
</text><text class="terminal-2666404841-r7" x="0" y="337.2" textLength="12.2" clip-path="url(#terminal-2666404841-line-13)">│</text><text class="terminal-2666404841-r8" x="24.4" y="337.2" textLength="146.4" clip-path="url(#terminal-2666404841-line-13)">&#160;⚡&#160;&#160;Survival</text><text class="terminal-2666404841-r3" x="231.8" y="337.2" textLength="12.2" clip-path="url(#terminal-2666404841-line-13)">│</text><text class="terminal-2666404841-r6" x="292.8" y="337.2" textLength="134.2" clip-path="url(#terminal-2666404841-line-13)">Checklist:&#160;</text><text class="terminal-2666404841-r1" x="1317.6" y="337.2" textLength="12.2" clip-path="url(#terminal-2666404841-line-13)">
</text><text class="terminal-2666404841-r7" x="0" y="361.6" textLength="12.2" clip-path="url(#terminal-2666404841-line-14)">│</text><text class="terminal-2666404841-r8" x="24.4" y="361.6" textLength="97.6" clip-path="url(#terminal-2666404841-line-14)">&#160;&#160;&#160;&#160;Mode</text><text class="terminal-2666404841-r3" x="231.8" y="361.6" textLength="12.2" clip-path="url(#terminal-2666404841-line-14)">│</text><text class="terminal-2666404841-r6" x="292.8" y="361.6" textLength="256.2" clip-path="url(#terminal-2666404841-line-14)">&#160;&#160;[x]&#160;Refill&#160;bottles&#160;</text><text class="terminal-2666404841-r1" x="1317.6" y="361.6" textLength="12.2" clip-path="url(#terminal-2666404841-line-14)">
</text><text class="terminal-2666404841-r7" x="0" y="386" textLength="12.2" clip-path="url(#terminal-2666404841-line-15)">│</text><text class="terminal-2666404841-r3" x="231.8" y="386" textLength="12.2" clip-path="url(#terminal-2666404841-line-15)">│</text><text class="terminal-2666404841-r6" x="292.8" y="386" textLength="305" clip-path="url(#terminal-2666404841-line-15)">&#160;&#160;[&#160;]&#160;Dry&#160;boots&#160;by&#160;stove&#160;</text><text class="terminal-2666404841-r1" x="1317.6" y="386" textLength="12.2" clip-path="url(#terminal-2666404841-line-15)">
</text><text class="terminal-2666404841-r3" x="231.8" y="410.4" textLength="12.2" clip-path="url(#terminal-2666404841-line-16)">│</text><text class="terminal-2666404841-r6" x="292.8" y="410.4" textLength="366" clip-path="url(#terminal-2666404841-line-16)">&#160;&#160;[&#160;]&#160;Check&#160;forecast&#160;at&#160;18:00&#160;</text><text class="terminal-2666404841-r1" x="1317.6" y="410.4" textLength="12.2" clip-path="url(#terminal-2666404841-line-16)">
</text><text class="terminal-2666404841-r3" x="231.8" y="434.8" textLength="12.2" clip-path="url(#terminal-2666404841-line-17)">│</text><text class="terminal-2666404841-r1" x="1317.6" y="434.8" textLength="12.2" clip-path="url(#terminal-2666404841-line-17)">
</text><text class="terminal-2666404841-r3" x="231.8" y="459.2" textLength="12.2" clip-path="url(#terminal-2666404841-line-18)">│</text><text class="terminal-2666404841-r6" x="292.8" y="459.2" textLength="85.4" clip-path="url(#terminal-2666404841-line-18)">Notes:&#160;</text><text class="terminal-2666404841-r1" x="1317.6" y="459.2" textLength="12.2" clip-path="url(#terminal-2666404841-line-18)">
</text><text class="terminal-2666404841-r3" x="231.8" y="483.6" textLength="12.2" clip-path="url(#terminal-2666404841-line-19)">│</text><text class="terminal-2666404841-r6" x="292.8" y="483.6" textLength="597.8" clip-path="url(#terminal-2666404841-line-19)">Wind&#160;swung&#160;round&#160;to&#160;the&#160;north&#160;overnight.&#160;Colder.&#160;</text><text class="terminal-2666404841-r1" x="1317.6" y="483.6" textLength="12.2" clip-path="url(#terminal-2666404841-line-19)">
</text><text class="terminal-2666404841-r3" x="231.8" y="508" textLength="12.2" clip-path="url(#terminal-2666404841-line-20)">│</text><text class="terminal-2666404841-r1" x="1317.6" y="508" textLength="12.2" clip-path="url(#terminal-2666404841-line-20)">
</text><text class="terminal-2666404841-r3" x="231.8" y="532.4" textLength="12.2" clip-path="url(#terminal-2666404841-line-21)">│</text><text class="terminal-2666404841-r1" x="1317.6" y="532.4" textLength="12.2" clip-path="url(#terminal-2666404841-line-21)">
</text><text class="terminal-2666404841-r3" x="231.8" y="556.8" textLength="12.2" clip-path="url(#terminal-2666404841-line-22)">│</text><text class="terminal-2666404841-r1" x="1317.6" y="556.8" textLength="12.2" clip-path="url(#terminal-2666404841-line-22)">
</text><text class="terminal-2666404841-r3" x="231.8" y="581.2" textLength="12.2" clip-path="url(#terminal-2666404841-line-23)">│</text><text class="terminal-2666404841-r1" x="1317.6" y="581.2" textLength="12.2" clip-path="url(#terminal-2666404841-line-23)">
</text><text class="terminal-2666404841-r3" x="231.8" y="605.6" textLength="12.2" clip-path="url(#terminal-2666404841-line-24)">│</text><text class="terminal-2666404841-r1" x="1317.6" y="605.6" textLength="12.2" clip-path="url(#terminal-2666404841-line-24)">
</text><text class="terminal-2666404841-r3" x="231.8" y="630" textLength="12.2" clip-path="url(#terminal-2666404841-line-25)">│</text><text class="terminal-2666404841-r1" x="1317.6" y="630" textLength="12.2" clip-path="url(#terminal-2666404841-line-25)">
</text><text class="terminal-2666404841-r3" x="231.8" y="654.4" textLength="12.2" clip-path="url(#terminal-2666404841-line-26)">│</text><text class="terminal-2666404841-r1" x="1317.6" y="654.4" textLength="12.2" clip-path="url(#terminal-2666404841-line-26)">
</text><text class="terminal-2666404841-r3" x="231.8" y="678.8" textLength="12.2" clip-path="url(#terminal-2666404841-line-27)">│</text><text class="terminal-2666404841-r1" x="1317.6" y="678.8" textLength="12.2" clip-path="url(#terminal-2666404841-line-27)">
</text><text class="terminal-2666404841-r3" x="231.8" y="703.2" textLength="12.2" clip-path="url(#terminal-2666404841-line-28)">│</text><text class="terminal-2666404841-r1" x="1317.6" y="703.2" textLength="12.2" clip-path="url(#terminal-2666404841-line-28)">
</text><text class="terminal-2666404841-r5" x="24.4" y="727.6" textLength="1220" clip-path="url(#terminal-2666404841-line-29)">&#160;&#160;^N&#160;New&#160;&#160;&#160;&#160;^S&#160;Save&#160;&#160;&#160;&#160;^O&#160;Open&#160;&#160;&#160;&#160;^F&#160;Find&#160;&#160;&#160;&#160;^G&#160;Sync&#160;&#160;&#160;&#160;^W&#160;Wi-Fi&#160;&#160;&#160;&#160;^U&#160;USB&#160;&#160;&#160;&#160;F1/2/3&#160;Mode&#160;&#160;&#160;&#160;^Q&#160;Quit</text>
    </g>
    </g>
</svg>
